<svg xmlns="http://www.w3.org/2000/svg" width="960" height="560" viewBox="0 0 960 560">
  <rect width="960" height="560" fill="#f4f4f1"/>
  <path d="M0 140h960M0 280h960M0 420h960M160 0v560M320 0v560M480 0v560M640 0v560M800 0v560" stroke="#deded9" stroke-width="1"/>
  <rect x="92" y="72" width="154" height="40" rx="20" fill="#0b0b0b"/>
  <text x="169" y="99" text-anchor="middle" fill="#fff" font-family="Arial, sans-serif" font-size="16" font-weight="700" letter-spacing="2">START HERE</text>
  <path d="M126 448h708" stroke="#0b0b0b" stroke-width="5"/>
  <rect x="190" y="352" width="88" height="96" fill="#0b0b0b"/>
  <rect x="342" y="286" width="88" height="162" fill="#0b0b0b"/>
  <rect x="494" y="210" width="88" height="238" fill="#0b0b0b"/>
  <rect x="646" y="126" width="88" height="322" fill="#dfff32" stroke="#0b0b0b" stroke-width="5"/>
  <path d="m182 311 190-90 151-45 184-96" fill="none" stroke="#0b0b0b" stroke-width="8" stroke-linecap="square" stroke-linejoin="round"/>
  <path d="m672 68 49 3-20 45" fill="none" stroke="#0b0b0b" stroke-width="8" stroke-linecap="square"/>
</svg>
